 <svg  version="1.0" xmlns="http://www.w3.org/2000/svg"  width="300.000000pt" height="300.000000pt" viewBox="0 0 300.000000 300.000000"  preserveAspectRatio="xMidYMid meet">  <g transform="translate(0.000000,300.000000) scale(0.100000,-0.100000)" fill="#b429ff" stroke="none"> <path d="M1756 2438 c-29 -100 -44 -120 -111 -144 -40 -14 -38 -35 4 -49 48 -16 88 -60 96 -106 11 -65 37 -64 49 1 4 25 3 31 -4 20 -5 -8 -10 -25 -10 -37 0 -36 -17 -27 -23 13 -9 52 -50 101 -97 115 -47 14 -51 24 -12 34 52 13 89 51 103 105 14 54 25 63 32 28 5 -21 5 -21 4 1 -2 27 -25 41 -31 19z"/> <path d="M1157 2403 c-17 -17 -2 -36 58 -73 78 -50 149 -126 192 -206 18 -32 33 -52 33 -44 0 23 -72 129 -124 181 -25 25 -70 61 -100 80 -55 33 -68 52 -43 62 6 3 7 6 1 6 -6 1 -14 -2 -17 -6z"/> <path d="M1247 2371 c120 -56 194 -128 262 -256 13 -23 19 -30 15 -15 -9 31 -46 92 -91 148 -48 59 -194 153 -236 152 -7 -1 16 -14 50 -29z"/> <path d="M1808 2344 c13 -25 50 -51 86 -60 34 -8 33 -20 -1 -29 -38 -9 -70 -31 -84 -57 -10 -18 -5 -16 18 8 17 17 46 35 65 40 42 12 42 36 0 48 -19 5 -48 23 -65 40 -21 21 -27 24 -19 10z"/> <path d="M980 2185 c-18 -21 -8 -29 77 -58 130 -45 255 -144 320 -255 14 -24 28 -41 30 -38 10 10 -70 117 -126 169 -70 64 -132 102 -226 137 -38 14 -69 30 -68 35 1 6 17 13 35 16 l33 6 -31 2 c-18 0 -37 -6 -44 -14z"/> <path d="M1110 2175 c30 -7 57 -12 58 -10 6 5 -71 25 -93 24 -11 0 5 -7 35 -14z"/> <path d="M1180 2156 c0 -2 21 -14 46 -27 58 -28 164 -126 206 -190 17 -27 33 -47 36 -45 8 8 -62 101 -115 153 -58 57 -173 129 -173 109z"/> <path d="M1968 2049 c21 -22 13 -35 -29 -48 -23 -7 -39 -14 -37 -17 3 -2 22 2 44 9 43 15 58 49 27 61 -14 6 -16 5 -5 -5z"/> <path d="M1783 2005 c-71 -37 -146 -103 -176 -155 -26 -44 -15 -37 21 13 43 60 130 125 205 153 34 13 52 23 40 23 -12 1 -52 -15 -90 -34z"/> <path d="M1567 1895 c3 -49 7 -92 9 -94 8 -8 3 105 -6 144 -6 28 -7 13 -3 -50z"/> <path d="M1814 1942 c-80 -53 -150 -131 -183 -205 -49 -108 -49 -107 21 -107 68 0 98 -12 98 -40 0 -37 -12 -50 -49 -52 l-36 -1 33 -4 c41 -5 62 11 62 47 0 42 -28 60 -94 60 l-58 0 6 28 c24 101 112 211 220 276 33 20 55 36 49 36 -5 0 -36 -17 -69 -38z"/> <path d="M1476 1914 c2 -32 7 -61 12 -66 5 -5 5 18 1 52 -9 79 -17 87 -13 14z"/> <path d="M1446 1710 c3 -19 8 -43 10 -52 5 -16 -3 -18 -68 -18 -84 0 -110 -13 -110 -53 0 -35 18 -57 47 -57 13 0 26 -6 28 -12 3 -8 6 -7 6 4 1 12 -9 18 -31 20 -28 2 -34 8 -36 31 -6 47 12 57 100 57 l79 0 -7 38 c-4 20 -11 46 -15 57 -6 14 -7 9 -3 -15z"/> <path d="M1686 1492 c9 -36 45 -114 50 -109 2 2 -9 33 -26 68 -16 35 -27 53 -24 41z"/> <path d="M1305 1411 c-22 -47 -66 -119 -97 -160 -32 -41 -58 -78 -58 -81 0 -5 144 -187 163 -205 25 -24 -11 26 -80 112 l-74 91 62 84 c56 76 134 221 127 238 -2 4 -21 -32 -43 -79z"/> <path d="M1741 1367 c-1 -4 25 -44 57 -88 31 -45 61 -87 67 -95 7 -9 4 -21 -10 -38 -114 -143 -215 -286 -202 -286 2 0 24 31 49 68 25 38 77 108 116 156 l71 88 -62 83 c-34 45 -67 91 -74 101 -6 11 -12 15 -12 11z"/> <path d="M1466 1279 c-36 -28 -37 -89 -1 -117 l25 -20 0 -243 c0 -177 -3 -240 -11 -229 -9 12 -10 12 -5 -3 3 -10 6 -21 6 -23 0 -2 5 -4 10 -4 6 0 10 93 10 259 0 251 -1 260 -20 266 -41 13 -40 91 2 114 34 19 77 6 95 -29 9 -17 13 -20 13 -8 0 22 -47 58 -75 58 -12 0 -34 -9 -49 -21z"/> <path d="M1581 1203 c-1 -7 -12 -23 -26 -36 l-25 -23 2 -249 c2 -188 6 -249 16 -253 6 -2 12 1 12 8 0 6 -5 8 -10 5 -7 -5 -10 73 -10 240 l1 247 26 22 c15 13 23 29 20 37 -3 8 -6 9 -6 2z"/> <path d="M1350 905 c17 -25 49 -83 72 -130 22 -47 43 -84 45 -81 11 11 -126 256 -143 256 -3 0 9 -20 26 -45z"/> <path d="M1618 808 c-37 -71 -59 -121 -56 -129 2 -4 22 33 45 82 43 92 50 121 11 47z"/> </g> </svg> 